<?xml version="1.0" standalone="no"?><svg xmlns="http://www.w3.org/2000/svg" viewBox="0 0 1440 320"><path fill="#00cba9" fill-opacity="1" d="M0,192L14.1,202.7C28.2,213,56,235,85,245.3C112.9,256,141,256,169,234.7C197.6,213,226,171,254,176C282.4,181,311,235,339,218.7C367.1,203,395,117,424,101.3C451.8,85,480,139,508,165.3C536.5,192,565,192,593,186.7C621.2,181,649,171,678,186.7C705.9,203,734,245,762,256C790.6,267,819,245,847,250.7C875.3,256,904,288,932,277.3C960,267,988,213,1016,192C1044.7,171,1073,181,1101,176C1129.4,171,1158,149,1186,138.7C1214.1,128,1242,128,1271,112C1298.8,96,1327,64,1355,58.7C1383.5,53,1412,75,1426,85.3L1440,96L1440,320L1425.9,320C1411.8,320,1384,320,1355,320C1327.1,320,1299,320,1271,320C1242.4,320,1214,320,1186,320C1157.6,320,1129,320,1101,320C1072.9,320,1045,320,1016,320C988.2,320,960,320,932,320C903.5,320,875,320,847,320C818.8,320,791,320,762,320C734.1,320,706,320,678,320C649.4,320,621,320,593,320C564.7,320,536,320,508,320C480,320,452,320,424,320C395.3,320,367,320,339,320C310.6,320,282,320,254,320C225.9,320,198,320,169,320C141.2,320,113,320,85,320C56.5,320,28,320,14,320L0,320Z"></path></svg>